<svg xmlns="http://www.w3.org/2000/svg" viewBox="0 0 530.3 550"><defs><style>.cls-1{fill:#e4b987;}.cls-2{fill:#daa56a;}.cls-3{fill:#d77c9c;}.cls-4{fill:#d0527f;}.cls-5{fill:#cd4176;}.cls-6{fill:#d36a99;}.cls-7{fill:#a1c6d9;}.cls-8{fill:#f4d331;}.cls-9{fill:#c72b2c;}</style></defs><title>Asset 1aaa</title><g id="Layer_2" data-name="Layer 2"><g id="Object"><path class="cls-1" d="M523.26,236.34q-.28-1.54-.6-3.09c-1.49.37-3,.67-4.52.91a51.71,51.71,0,0,1-24.79-2.1c-27.37-9.27-53.76-39.16-44.41-66.75,1.32-3.9-2.83-7.53-.76-10.88a52.08,52.08,0,0,1-53.73-36.25,52.66,52.66,0,0,1-2.19-21.8c-9.66,10.1-10.48,16.63-23.85,18.43A55.79,55.79,0,0,1,343,112.37C312.27,102,296.31,67.09,307.36,34.49a64.15,64.15,0,0,1,2.82-6.94c0-.1.09-.2.14-.3C182,1.19,57.16,74,14,201.3-32.75,339.36,41.25,489.21,179.31,536a264.86,264.86,0,0,0,61.08,12.94C359.06,559.69,474.07,488.54,514,370.71A262.69,262.69,0,0,0,523.26,236.34Zm-175.92,77.9a88,88,0,1,1-55.09-111.56l.2.07A88,88,0,0,1,347.34,314.24Z"/><path class="cls-2" d="M525.86,252.53C451.05,365.68,329,491,145.21,521.71a265.1,265.1,0,0,0,95.18,27.22C359.06,559.69,474.07,488.54,514,370.71A262.79,262.79,0,0,0,525.86,252.53Z"/><path class="cls-3" d="M525.29,206.54c-1.48.37-3,.67-4.51.91a54.33,54.33,0,0,0,5.12,2.19C525.7,208.6,525.51,207.57,525.29,206.54Z"/><path class="cls-4" d="M525.9,209.64a54.33,54.33,0,0,1-5.12-2.19,51.58,51.58,0,0,1-24.79-2.1c-27.37-9.27-42-39.16-32.63-66.75a53.49,53.49,0,0,1,5.13-10.88,52,52,0,0,1-53.73-36.25,52.66,52.66,0,0,1-2.19-21.8A60.79,60.79,0,0,1,376.94,88.1a55.77,55.77,0,0,1-25.41-2.44C320.8,75.25,304.84,40.38,315.89,7.78A66,66,0,0,1,318.7.85C201-8.64,87.36,62.34,47.73,179.3,1,317.36,75,467.2,213,514c10,3.38,235.41,53.56,303.62-170C530.46,298.7,534.26,253,525.9,209.64ZM350,287.53A88,88,0,1,1,294.89,176l.2.07A88,88,0,0,1,350,287.53Z"/><path class="cls-3" d="M525.29,206.54c-1.48.37-3,.67-4.51.91a54.33,54.33,0,0,0,5.12,2.19C525.7,208.6,525.51,207.57,525.29,206.54Z"/><path class="cls-5" d="M530.06,246.11C463.2,349.26,356.94,464.32,200.21,509.28q6.3,2.5,12.8,4.7c10,3.38,235.41,53.56,303.62-170C526.64,311.23,531.36,278.27,530.06,246.11Z"/><path class="cls-6" d="M294.82,52.5V26.63c-1.88-.05-3.76-.1-5.66-.1-127.47,0-230.8,103.33-230.8,230.8A229.73,229.73,0,0,0,106.21,398,229.68,229.68,0,0,1,75.54,283C75.54,159.39,172.71,58.5,294.82,52.5Z"/><rect class="cls-7" x="130.98" y="322.02" width="14.23" height="43.94" transform="translate(-121.27 79.17) rotate(-22.53)"/><rect class="cls-7" x="370.17" y="102.14" width="14.23" height="43.94" transform="translate(220.83 489.17) rotate(-85.01)"/><rect class="cls-8" x="93.74" y="206.11" width="43.94" height="14.23" transform="matrix(0.85, -0.53, 0.53, 0.85, -95.8, 94.4)"/><rect class="cls-7" x="444.66" y="322.02" width="14.23" height="43.94" transform="translate(-40.99 626.14) rotate(-67.08)"/><rect class="cls-9" x="222.68" y="76.28" width="14.23" height="43.94" transform="translate(32.58 251.76) rotate(-61.05)"/><rect class="cls-8" x="364.85" y="403.25" width="14.23" height="43.94" transform="translate(-190.69 374.3) rotate(-43.65)"/><rect class="cls-9" x="207.82" y="421.19" width="43.94" height="14.23" transform="translate(-192.83 188.23) rotate(-32.19)"/><rect class="cls-8" x="417.88" y="235.71" width="43.94" height="14.23" transform="translate(-61.75 271.61) rotate(-32.19)"/></g></g></svg>